<?xml version="1.0" standalone="no"?>
<!DOCTYPE svg PUBLIC "-//W3C//DTD SVG 20010904//EN"
 "http://www.w3.org/TR/2001/REC-SVG-20010904/DTD/svg10.dtd">
<svg version="1.0" xmlns="http://www.w3.org/2000/svg"
 width="497.000000pt" height="271.000000pt" viewBox="0 0 497.000000 271.000000"
 preserveAspectRatio="xMidYMid meet">
<metadata>
Created by potrace 1.10, written by Peter Selinger 2001-2011
</metadata>
<g transform="translate(0.000000,271.000000) scale(0.050000,-0.050000)"
fill="#000000" stroke="none">
<path d="M0 2970 l0 -2450 4500 0 4500 0 0 2450 0 2450 -4500 0 -4500 0 0
-2450z m4388 1700 c57 -39 83 -46 112 -30 75 40 116 -16 56 -76 -14 -14 -25
-82 -25 -161 -1 -166 -56 -262 -187 -326 -67 -32 -85 -51 -80 -84 6 -43 10
-43 651 -48 l645 -6 0 -165 c0 -126 10 -184 40 -244 22 -43 40 -115 40 -159 0
-65 9 -85 45 -101 53 -23 81 -465 33 -522 -69 -84 -658 -27 -658 63 0 24 -114
29 -715 34 l-715 5 -10 110 -10 110 -217 10 c-207 10 -219 12 -265 66 l-48 56
0 599 c0 751 -45 679 427 679 l346 0 49 74 c110 170 329 222 486 116z m628
-285 c-6 -30 -31 -35 -186 -35 -155 0 -180 5 -186 35 -6 31 13 35 186 35 173
0 192 -4 186 -35z m180 -240 c-6 -31 -35 -35 -276 -35 -241 0 -270 4 -276 35
-6 32 17 35 276 35 259 0 282 -3 276 -35z m-1136 -2813 l0 -169 78 43 c177 97
281 4 282 -251 0 -128 7 -162 40 -195 l40 -40 -135 1 c-129 1 -133 3 -90 32
107 75 48 428 -71 427 -149 -2 -220 -366 -84 -434 44 -22 31 -25 -110 -24
-126 0 -151 5 -117 22 90 43 105 620 17 660 -68 31 -63 45 25 70 129 36 125
41 125 -142z m2548 122 c17 -29 14 -42 -15 -64 -65 -48 -141 22 -90 83 30 36
76 28 105 -19z m-3943 -324 c92 -216 154 -335 191 -365 l54 -45 -175 0 c-183
0 -209 8 -125 40 56 21 60 41 25 140 -41 115 -49 120 -177 120 l-119 0 -41
-94 c-45 -107 -39 -139 31 -166 82 -31 60 -40 -93 -40 l-144 0 61 55 c55 50
287 586 287 665 0 12 20 20 44 16 37 -5 68 -62 181 -326z m1050 94 c87 -9 83
-44 -5 -44 l-70 0 0 -159 c0 -207 20 -261 100 -261 83 0 76 -35 -12 -52 -153
-28 -188 30 -188 314 0 143 -4 158 -39 158 -32 0 -24 16 45 87 l84 88 10 -63
c9 -53 19 -63 75 -68z m-417 -17 c38 -27 102 -137 102 -176 0 -6 -81 -11 -180
-11 l-180 0 0 -62 c0 -137 158 -214 305 -149 54 23 43 -23 -14 -60 -174 -114
-391 9 -391 221 0 198 213 339 358 237z m1640 0 c38 -27 102 -137 102 -176 0
-6 -81 -11 -180 -11 l-180 0 0 -62 c0 -138 157 -214 308 -148 68 30 25 -37
-49 -76 -98 -51 -208 -34 -287 45 -200 200 59 587 286 428z m342 -7 c0 -22 5
-40 12 -40 6 0 35 18 63 40 57 45 106 51 141 16 62 -62 -10 -126 -75 -67 -36
32 -40 32 -80 -8 -67 -67 -53 -359 19 -395 44 -23 33 -25 -106 -26 -99 0 -152
7 -144 20 7 11 24 20 39 20 96 0 62 413 -35 422 -22 2 115 53 151 56 8 1 15
-16 15 -38z m940 0 c33 -33 40 -67 40 -205 1 -177 17 -228 68 -209 41 16 41
-3 -1 -49 -43 -48 -100 -47 -130 1 -24 38 -25 38 -95 0 -91 -49 -152 -48 -202
2 -87 87 -30 176 149 232 l113 36 -6 79 c-10 138 -167 162 -180 28 -5 -50 -15
-65 -46 -65 -53 0 -65 81 -20 131 62 67 250 79 310 19z m395 -192 c5 -193 10
-222 47 -253 41 -34 38 -35 -104 -35 -139 0 -144 2 -102 31 68 48 67 375 -1
412 -44 24 -42 26 35 49 118 36 120 35 125 -204z"/>
<path d="M4066 4601 c-229 -140 -121 -475 149 -465 125 5 245 127 245 249 0
74 -18 70 -111 -27 -127 -131 -141 -133 -231 -46 -43 42 -78 87 -78 101 0 51
45 49 101 -4 65 -62 64 -63 202 79 70 71 70 64 -8 112 -83 51 -187 51 -269 1z"/>
<path d="M3185 4387 c-19 -8 -25 -119 -25 -461 l0 -451 45 12 c25 7 240 13
479 13 367 0 438 5 465 31 40 41 47 509 7 509 -119 0 -296 183 -296 307 l0 53
-325 -2 c-179 0 -336 -6 -350 -11z m538 -329 c240 -158 240 -143 -2 -304 -216
-144 -221 -141 -221 155 0 300 -3 298 223 149z"/>
<path d="M3580 3913 c0 -138 8 -143 113 -71 105 72 104 61 7 125 -109 73 -120
68 -120 -54z"/>
<path d="M4260 3519 c0 -446 6 -439 -329 -439 l-231 0 0 -80 0 -81 675 6 675
5 10 150 c11 160 25 200 71 200 20 0 29 22 29 71 0 162 106 289 243 289 l77 0
0 110 0 110 -610 0 -610 0 0 -341z m356 -154 c-5 -28 -27 -35 -106 -35 -79 0
-101 7 -106 35 -6 30 9 35 106 35 97 0 112 -5 106 -35z m354 -5 c0 -22 -27
-32 -98 -36 -100 -7 -147 15 -122 55 21 36 220 18 220 -19z"/>
<path d="M5313 3519 c-44 -35 -53 -58 -53 -140 l0 -99 141 0 c158 0 172 13
150 131 -26 139 -135 189 -238 108z"/>
<path d="M3230 3396 c-81 -46 -94 -132 -30 -196 38 -38 67 -40 479 -40 504 0
501 -1 501 161 l0 99 -455 -1 c-301 0 -469 -8 -495 -23z"/>
<path d="M5149 3173 c-6 -14 -8 -102 -5 -195 l6 -168 250 0 250 0 6 195 5 195
-251 0 c-191 0 -254 -6 -261 -27z"/>
<path d="M2404 1215 c-57 -162 -60 -155 56 -155 114 0 116 4 57 146 -62 148
-65 148 -113 9z"/>
<path d="M3081 1147 c-68 -87 -55 -107 70 -107 123 0 150 27 112 111 -31 69
-126 67 -182 -4z"/>
<path d="M4721 1147 c-70 -90 -56 -110 74 -103 128 7 159 46 94 117 -49 54
-119 49 -168 -14z"/>
<path d="M6045 927 c-79 -39 -94 -135 -24 -157 68 -22 139 39 139 120 0 79
-18 85 -115 37z"/>
</g>
</svg>
